<?xml version="1.0" encoding="utf-8"?>
<!-- Generator: Adobe Illustrator 23.0.3, SVG Export Plug-In . SVG Version: 6.00 Build 0)  -->
<svg version="1.1" xmlns="http://www.w3.org/2000/svg" xmlns:xlink="http://www.w3.org/1999/xlink" x="0px" y="0px"
	 viewBox="0 0 200 122" style="enable-background:new 0 0 200 122;" xml:space="preserve">
<style type="text/css">
	.st0{display:none;}
	.st1{display:inline;}
	.st2{fill:#252F3E;}
	.st3{fill:#FF9900;}
	.st4{fill:#61DAFB;}
	.st5{fill:#F7DF1E;}
	.st6{fill:#B388FF;}
	.st7{fill:#170B40;}
	.st8{fill:#FF5722;}
	.st9{fill:#1C0802;}
	.st10{fill:#03A9F4;}
	.st11{fill:#020F16;}
</style>
<g id="Layer_1" class="st0">
	<g id="surface482321" class="st1">
		<path class="st2" d="M61.71,46.49c0,2.19,0.23,3.96,0.64,5.26c0.47,1.3,1.04,2.71,1.87,4.24c0.29,0.47,0.4,0.94,0.4,1.36
			c0,0.59-0.34,1.17-1.1,1.77l-3.69,2.47c-0.53,0.36-1.04,0.53-1.51,0.53c-0.59,0-1.17-0.29-1.76-0.83
			c-0.81-0.87-1.51-1.83-2.1-2.77c-0.59-1-1.16-2.11-1.8-3.47c-4.56,5.43-10.28,8.14-17.17,8.14c-4.9,0-8.81-1.43-11.68-4.26
			c-2.86-2.83-4.31-6.6-4.31-11.31c0-5.01,1.76-9.08,5.31-12.14c3.56-3.07,8.28-4.6,14.3-4.6c1.99,0,4.03,0.17,6.18,0.47
			c2.17,0.29,4.39,0.76,6.73,1.29v-4.3c0-4.47-0.94-7.6-2.74-9.43c-1.87-1.83-5.03-2.71-9.53-2.71c-2.04,0-4.14,0.23-6.3,0.76
			c-2.16,0.54-4.26,1.19-6.3,2.01c-0.94,0.41-1.64,0.64-2.04,0.77c-0.41,0.11-0.71,0.17-0.94,0.17c-0.81,0-1.21-0.59-1.21-1.83V15.2
			c0-0.94,0.11-1.66,0.4-2.07c0.3-0.41,0.83-0.83,1.64-1.24c2.04-1.06,4.49-1.94,7.36-2.64c2.86-0.77,5.88-1.13,9.1-1.13
			c6.96,0,12.03,1.6,15.3,4.79c3.21,3.19,4.84,8.01,4.84,14.5v19.1H61.71z M38.01,55.47c1.91,0,3.9-0.36,6-1.07
			c2.11-0.7,3.97-2,5.56-3.77c0.93-1.11,1.63-2.36,1.99-3.77c0.34-1.41,0.59-3.13,0.59-5.13v-2.47c-1.7-0.41-3.51-0.77-5.37-1.01
			c-1.87-0.23-3.69-0.34-5.5-0.34c-3.91,0-6.77,0.76-8.7,2.36c-1.93,1.59-2.86,3.83-2.86,6.77c0,2.77,0.7,4.84,2.16,6.26
			C33.28,54.75,35.32,55.47,38.01,55.47z M84.87,61.84c-1.04,0-1.74-0.19-2.21-0.6c-0.47-0.34-0.87-1.17-1.23-2.3L67.72,13.37
			c-0.36-1.19-0.53-1.94-0.53-2.36c0-0.94,0.47-1.47,1.4-1.47h5.73c1.1,0,1.86,0.17,2.27,0.59c0.47,0.36,0.81,1.17,1.17,2.3
			l9.8,39.02l9.11-39.02c0.29-1.19,0.64-1.94,1.1-2.3c0.47-0.36,1.29-0.59,2.34-0.59h4.67c1.1,0,1.87,0.17,2.33,0.59
			c0.47,0.36,0.89,1.17,1.11,2.3l9.23,39.49l10.1-39.49c0.34-1.19,0.76-1.94,1.16-2.3c0.47-0.36,1.23-0.59,2.29-0.59h5.43
			c0.93,0,1.46,0.47,1.46,1.47c0,0.29-0.06,0.59-0.11,0.94c-0.06,0.36-0.17,0.83-0.41,1.47l-14.07,45.57
			c-0.34,1.19-0.76,1.96-1.21,2.3c-0.47,0.36-1.23,0.6-2.23,0.6h-5.01c-1.11,0-1.87-0.19-2.34-0.6c-0.47-0.4-0.87-1.17-1.1-2.36
			l-9.06-38.02l-8.98,37.97c-0.29,1.19-0.64,1.94-1.1,2.36c-0.47,0.41-1.29,0.6-2.34,0.6H84.87z M159.89,63.42
			c-3.03,0-6.07-0.36-8.98-1.06c-2.93-0.71-5.2-1.47-6.71-2.36c-0.94-0.54-1.59-1.13-1.81-1.66s-0.36-1.11-0.36-1.64v-3.01
			c0-1.24,0.47-1.83,1.34-1.83c0.36,0,0.71,0.06,1.06,0.19c0.34,0.11,0.87,0.34,1.46,0.59c1.99,0.89,4.14,1.59,6.43,2.06
			c2.33,0.47,4.6,0.71,6.94,0.71c3.69,0,6.54-0.66,8.53-1.96c1.99-1.3,3.03-3.19,3.03-5.6c0-1.64-0.53-3-1.57-4.13
			c-1.06-1.11-3.04-2.11-5.9-3.06l-8.46-2.66c-4.27-1.36-7.41-3.37-9.34-6.01c-1.93-2.6-2.93-5.48-2.93-8.56
			c0-2.47,0.53-4.66,1.59-6.54c1.04-1.89,2.46-3.54,4.2-4.84c1.76-1.36,3.74-2.36,6.07-3.06c2.33-0.7,4.79-1,7.36-1
			c1.29,0,2.63,0.06,3.91,0.23c1.34,0.19,2.57,0.41,3.8,0.66c1.16,0.29,2.27,0.59,3.33,0.94c1.04,0.36,1.86,0.7,2.44,1.06
			c0.83,0.47,1.4,0.94,1.76,1.47c0.36,0.47,0.53,1.11,0.53,1.94v2.77c0,1.24-0.47,1.89-1.34,1.89c-0.47,0-1.23-0.23-2.23-0.7
			c-3.31-1.53-7.06-2.3-11.2-2.3c-3.33,0-5.96,0.53-7.77,1.66c-1.8,1.11-2.74,2.83-2.74,5.24c0,1.64,0.59,3.06,1.76,4.19
			c1.17,1.11,3.33,2.24,6.41,3.24l8.3,2.66c4.2,1.36,7.24,3.24,9.04,5.66c1.81,2.41,2.69,5.19,2.69,8.26c0,2.53-0.53,4.83-1.51,6.84
			c-1.06,2-2.46,3.77-4.26,5.19c-1.81,1.47-3.97,2.53-6.48,3.3C165.61,63.01,162.86,63.42,159.89,63.42z"/>
		<path class="st3" d="M170.92,92.07C151.72,106.4,123.81,114,99.82,114c-33.61,0-63.92-12.56-86.8-33.42
			c-1.8-1.64-0.17-3.89,1.99-2.59c24.75,14.5,55.28,23.28,86.87,23.28c21.3,0,44.71-4.49,66.25-13.68
			C171.33,86.12,174.08,89.72,170.92,92.07z M178.92,82.88c-2.46-3.19-16.23-1.53-22.47-0.77c-1.87,0.24-2.16-1.41-0.47-2.66
			c10.97-7.77,29.01-5.54,31.11-2.94c2.11,2.66-0.59,20.87-10.86,29.6c-1.57,1.36-3.09,0.66-2.39-1.11
			C176.18,99.14,181.38,86,178.92,82.88z"/>
	</g>
</g>
<g id="Layer_2" class="st0">
	<g class="st1">
		<path class="st4" d="M160.64,61.01c0-8.03-10.06-15.65-25.49-20.37c3.56-15.72,1.98-28.23-4.99-32.23
			c-1.61-0.94-3.49-1.38-5.54-1.38v5.51c1.14,0,2.05,0.22,2.82,0.64c3.36,1.93,4.82,9.27,3.68,18.71c-0.27,2.32-0.72,4.77-1.26,7.27
			c-4.85-1.19-10.14-2.1-15.7-2.69c-3.34-4.57-6.8-8.73-10.28-12.36c8.06-7.49,15.62-11.59,20.76-11.59V7
			c-6.8,0-15.7,4.85-24.69,13.25c-9-8.36-17.9-13.15-24.69-13.15v5.51c5.12,0,12.71,4.08,20.76,11.52
			c-3.46,3.63-6.92,7.76-10.21,12.34c-5.59,0.59-10.88,1.51-15.72,2.72c-0.57-2.47-0.99-4.87-1.29-7.17
			c-1.16-9.44,0.27-16.78,3.61-18.74c0.74-0.44,1.71-0.64,2.84-0.64V7.12c-2.08,0-3.96,0.44-5.59,1.38c-6.95,4-8.5,16.49-4.92,32.16
			C49.37,45.41,39.36,53,39.36,61.01c0,8.03,10.06,15.65,25.49,20.37c-3.56,15.72-1.98,28.23,4.99,32.23
			c1.61,0.94,3.49,1.38,5.56,1.38c6.8,0,15.7-4.85,24.69-13.25c9,8.36,17.9,13.15,24.69,13.15c2.08,0,3.96-0.44,5.59-1.38
			c6.95-4,8.5-16.49,4.92-32.16C150.63,76.64,160.64,69.02,160.64,61.01L160.64,61.01z M128.45,44.52
			c-0.91,3.19-2.05,6.48-3.34,9.76c-1.01-1.98-2.08-3.96-3.24-5.93c-1.14-1.98-2.35-3.91-3.56-5.78
			C121.83,43.09,125.21,43.73,128.45,44.52L128.45,44.52z M117.13,70.85c-1.93,3.34-3.91,6.5-5.96,9.44
			c-3.68,0.32-7.42,0.49-11.17,0.49c-3.73,0-7.47-0.17-11.12-0.47c-2.05-2.94-4.05-6.08-5.98-9.39c-1.88-3.24-3.58-6.53-5.14-9.84
			c1.53-3.31,3.26-6.62,5.12-9.86c1.93-3.34,3.91-6.5,5.96-9.44c3.68-0.32,7.42-0.49,11.17-0.49c3.73,0,7.47,0.17,11.12,0.47
			c2.05,2.94,4.05,6.08,5.98,9.39c1.88,3.24,3.58,6.53,5.14,9.84C120.69,64.3,118.98,67.61,117.13,70.85L117.13,70.85z
			 M125.12,67.64c1.33,3.31,2.47,6.62,3.41,9.84c-3.24,0.79-6.65,1.46-10.18,1.98c1.21-1.9,2.42-3.86,3.56-5.86
			C123.04,71.62,124.1,69.61,125.12,67.64L125.12,67.64z M100.05,94.01c-2.3-2.37-4.6-5.02-6.87-7.91c2.22,0.1,4.5,0.17,6.8,0.17
			c2.32,0,4.62-0.05,6.87-0.17C104.62,88.99,102.32,91.64,100.05,94.01z M81.66,79.45c-3.51-0.52-6.9-1.16-10.14-1.95
			c0.91-3.19,2.05-6.48,3.34-9.76c1.01,1.98,2.08,3.96,3.24,5.93C79.26,75.65,80.45,77.57,81.66,79.45z M99.93,28.01
			c2.3,2.37,4.6,5.02,6.87,7.91c-2.22-0.1-4.5-0.17-6.8-0.17c-2.32,0-4.62,0.05-6.87,0.17C95.35,33.03,97.65,30.38,99.93,28.01z
			 M81.63,42.57c-1.21,1.9-2.42,3.86-3.56,5.86c-1.14,1.98-2.2,3.96-3.21,5.93c-1.33-3.31-2.47-6.62-3.41-9.84
			C74.69,43.76,78.1,43.09,81.63,42.57L81.63,42.57z M59.26,73.52c-8.75-3.73-14.41-8.63-14.41-12.51s5.66-8.8,14.41-12.51
			c2.13-0.91,4.45-1.73,6.85-2.5c1.41,4.85,3.26,9.89,5.56,15.05c-2.27,5.14-4.1,10.16-5.49,14.98
			C63.74,75.28,61.41,74.44,59.26,73.52L59.26,73.52z M72.56,108.84c-3.36-1.93-4.82-9.27-3.68-18.71c0.27-2.32,0.72-4.77,1.26-7.27
			c4.85,1.19,10.14,2.1,15.7,2.69c3.34,4.57,6.8,8.73,10.28,12.36c-8.06,7.49-15.62,11.59-20.76,11.59
			C74.24,109.49,73.3,109.27,72.56,108.84L72.56,108.84z M131.2,90.01c1.16,9.44-0.27,16.78-3.61,18.74
			c-0.74,0.44-1.71,0.64-2.84,0.64c-5.12,0-12.71-4.08-20.76-11.52c3.46-3.63,6.92-7.76,10.21-12.34
			c5.59-0.59,10.88-1.51,15.72-2.72C130.48,85.31,130.92,87.71,131.2,90.01z M140.71,73.52c-2.13,0.91-4.45,1.73-6.85,2.5
			c-1.41-4.85-3.26-9.89-5.56-15.05c2.27-5.14,4.1-10.16,5.49-14.98c2.45,0.77,4.77,1.61,6.95,2.52
			c8.75,3.73,14.41,8.63,14.41,12.51C155.12,64.89,149.46,69.81,140.71,73.52L140.71,73.52z"/>
		<circle class="st4" cx="99.98" cy="61.01" r="11.3"/>
	</g>
</g>
<g id="Layer_3" class="st0">
	<g class="st1">
		<path class="st5" d="M46,7h108v108H46V7z"/>
		<path d="M74.4,97.25l8.26-5c1.59,2.83,3.04,5.22,6.52,5.22c3.33,0,5.44-1.3,5.44-6.38V56.58h10.15v34.65
			c0,10.51-6.16,15.3-15.15,15.3C81.5,106.53,76.79,102.33,74.4,97.25"/>
		<path d="M110.29,96.17l8.26-4.78c2.18,3.55,5,6.16,10,6.16c4.21,0,6.89-2.1,6.89-5c0-3.48-2.75-4.71-7.39-6.74l-2.54-1.09
			c-7.32-3.12-12.18-7.03-12.18-15.3c0-7.61,5.8-13.41,14.86-13.41c6.45,0,11.09,2.25,14.43,8.12l-7.9,5.07
			c-1.74-3.12-3.62-4.35-6.52-4.35c-2.97,0-4.86,1.88-4.86,4.35c0,3.04,1.89,4.28,6.23,6.16l2.54,1.09
			c8.63,3.7,13.48,7.47,13.48,15.95c0,9.14-7.18,14.14-16.82,14.14C119.35,106.53,113.26,102.04,110.29,96.17"/>
	</g>
</g>
<g id="Layer_4">
	<g>
		<g id="surface431786_1_">
			<path class="st6" d="M108.32,38.16c0-3.61,2.92-6.53,6.53-6.53h45.68c3.61,0,6.53,2.92,6.53,6.53v45.68
				c0,3.61-2.92,6.53-6.53,6.53h-45.68c-3.61,0-6.53-2.92-6.53-6.53V38.16z"/>
			<path class="st7" d="M113.21,36.53v48.95h48.95V36.53H113.21z"/>
			<path class="st6" d="M133.09,67.47h-7.43l-1.41,4.65h-4.51l7.66-22.54h3.93l7.7,22.53h-4.51L133.09,67.47z M126.8,63.71h5.14
				l-2.58-8.44L126.8,63.71z M147.71,72.42c-1.19,0-2.25-0.21-3.19-0.64c-0.94-0.42-1.73-1-2.38-1.73c-0.66-0.73-1.15-1.59-1.5-2.57
				s-0.52-2.04-0.52-3.17v-0.6c0-1.27,0.17-2.43,0.5-3.49c0.33-1.06,0.81-1.97,1.43-2.73c0.61-0.76,1.36-1.36,2.24-1.79
				c0.88-0.43,1.87-0.64,2.96-0.64c1.1,0,2.07,0.2,2.91,0.6c0.83,0.4,1.54,0.95,2.11,1.67c0.57,0.71,1,1.58,1.29,2.59
				c0.29,1.01,0.43,2.14,0.43,3.37v1.91h-9.73c0.06,0.55,0.2,1.05,0.4,1.48c0.2,0.45,0.46,0.82,0.78,1.14
				c0.31,0.31,0.68,0.55,1.11,0.73c0.42,0.18,0.9,0.26,1.43,0.26c0.74,0,1.43-0.15,2.06-0.45c0.63-0.31,1.17-0.78,1.63-1.42
				l2.01,2.46c-0.24,0.38-0.55,0.76-0.92,1.12c-0.37,0.36-0.8,0.69-1.3,0.97c-0.5,0.29-1.06,0.51-1.69,0.68
				C149.14,72.34,148.46,72.42,147.71,72.42z M147.24,58.68c-0.44,0-0.83,0.08-1.17,0.25c-0.33,0.17-0.62,0.41-0.86,0.71
				c-0.24,0.3-0.43,0.66-0.59,1.09c-0.15,0.42-0.25,0.89-0.32,1.41h5.68v-0.36c-0.01-0.45-0.07-0.85-0.18-1.24
				c-0.11-0.38-0.27-0.71-0.5-0.99c-0.22-0.28-0.5-0.49-0.85-0.65C148.12,58.76,147.72,58.68,147.24,58.68z"/>
		</g>
		<g id="surface483596_1_">
			<path class="st8" d="M32.95,59.79c0-3.61,2.92-6.53,6.53-6.53h45.68c3.61,0,6.53,2.92,6.53,6.53v45.68
				c0,3.61-2.92,6.53-6.53,6.53H39.47c-3.61,0-6.53-2.92-6.53-6.53V59.79z"/>
			<path class="st9" d="M37.84,58.16v48.95h48.95V58.16H37.84z M61.81,94.05l-1.24-4.75h-6.39l-1.24,4.75h-4.96l7.25-23.2h4.29
				l7.3,23.2H61.81z M73.49,94.05h-4.53V76.81h4.53V94.05z M73,74.07c-0.44,0.46-1.04,0.69-1.79,0.69c-0.76,0-1.35-0.23-1.79-0.69
				c-0.45-0.46-0.66-1.03-0.66-1.72c0-0.7,0.22-1.27,0.67-1.72c0.45-0.45,1.04-0.67,1.78-0.67c0.74,0,1.34,0.22,1.78,0.67
				c0.45,0.45,0.67,1.02,0.67,1.72C73.67,73.04,73.44,73.61,73,74.07z"/>
			<path class="st9" d="M55.2,85.4h4.33l-2.17-8.27L55.2,85.4z"/>
		</g>
		<g id="surface439101">
			<path class="st10" d="M70.68,16.53c0-3.61,2.92-6.53,6.53-6.53h45.68c3.61,0,6.53,2.92,6.53,6.53v45.68
				c0,3.61-2.92,6.53-6.53,6.53H77.21c-3.61,0-6.53-2.92-6.53-6.53V16.53z"/>
			<path class="st11" d="M93.55,31.5h-3.26v7.23h3.22c0.89,0,1.58-0.29,2.07-0.88c0.49-0.58,0.73-1.43,0.73-2.55
				c0-1.16-0.25-2.08-0.75-2.77C95.06,31.85,94.39,31.5,93.55,31.5z"/>
			<path class="st11" d="M75.58,14.89v48.95h48.95V14.89H75.58z M99.01,40.66c-1.34,1.32-3.21,1.98-5.6,1.98h-3.12v8.16H85.6v-23.2
				h7.9c2.29,0,4.12,0.71,5.49,2.14c1.36,1.42,2.05,3.27,2.05,5.54S100.36,39.34,99.01,40.66z M114.22,49.71
				c-1.16,0.94-2.68,1.4-4.56,1.4c-1.27,0-2.38-0.25-3.35-0.74c-0.97-0.5-1.73-1.19-2.28-2.06c-0.55-0.88-0.82-1.84-0.82-2.86h4.29
				c0.03,0.79,0.2,1.38,0.55,1.77s0.91,0.59,1.7,0.59c1.21,0,1.82-0.54,1.82-1.64c0-0.38-0.18-0.74-0.55-1.06
				c-0.37-0.33-1.18-0.76-2.44-1.31c-1.86-0.76-3.14-1.54-3.84-2.35c-0.69-0.81-1.05-1.81-1.05-3.01c0-1.5,0.55-2.75,1.64-3.73
				c1.08-0.98,2.53-1.47,4.32-1.47c1.89,0,3.4,0.49,4.54,1.47c1.13,0.98,1.7,2.29,1.7,3.93h-4.51c0-1.4-0.59-2.1-1.75-2.1
				c-0.48,0-0.87,0.15-1.18,0.45c-0.31,0.3-0.47,0.71-0.47,1.24c0,0.38,0.17,0.72,0.51,1.01c0.34,0.29,1.14,0.71,2.41,1.25
				c1.84,0.68,3.14,1.44,3.89,2.28c0.76,0.83,1.14,1.91,1.14,3.24C115.95,47.53,115.37,48.77,114.22,49.71z"/>
		</g>
	</g>
</g>
</svg>
