<?xml version="1.0" encoding="utf-8"?>
<!-- Generator: Adobe Illustrator 23.0.3, SVG Export Plug-In . SVG Version: 6.00 Build 0)  -->
<svg version="1.1" id="Layer_1" xmlns="http://www.w3.org/2000/svg" xmlns:xlink="http://www.w3.org/1999/xlink" x="0px" y="0px"
	 viewBox="0 0 200 122" style="enable-background:new 0 0 200 122;" xml:space="preserve">
<style type="text/css">
	.st0{fill:#252F3E;}
	.st1{fill:#FF9900;}
</style>
<g id="surface482321">
	<path class="st0" d="M61.71,46.49c0,2.19,0.23,3.96,0.64,5.26c0.47,1.3,1.04,2.71,1.87,4.24c0.29,0.47,0.4,0.94,0.4,1.36
		c0,0.59-0.34,1.17-1.1,1.77l-3.69,2.47c-0.53,0.36-1.04,0.53-1.51,0.53c-0.59,0-1.17-0.29-1.76-0.83c-0.81-0.87-1.51-1.83-2.1-2.77
		c-0.59-1-1.16-2.11-1.8-3.47c-4.56,5.43-10.28,8.14-17.17,8.14c-4.9,0-8.81-1.43-11.68-4.26c-2.86-2.83-4.31-6.6-4.31-11.31
		c0-5.01,1.76-9.08,5.31-12.14c3.56-3.07,8.28-4.6,14.3-4.6c1.99,0,4.03,0.17,6.18,0.47c2.17,0.29,4.39,0.76,6.73,1.29v-4.3
		c0-4.47-0.94-7.6-2.74-9.43c-1.87-1.83-5.03-2.71-9.53-2.71c-2.04,0-4.14,0.23-6.3,0.76c-2.16,0.54-4.26,1.19-6.3,2.01
		c-0.94,0.41-1.64,0.64-2.04,0.77c-0.41,0.11-0.71,0.17-0.94,0.17c-0.81,0-1.21-0.59-1.21-1.83V15.2c0-0.94,0.11-1.66,0.4-2.07
		c0.3-0.41,0.83-0.83,1.64-1.24c2.04-1.06,4.49-1.94,7.36-2.64c2.86-0.77,5.88-1.13,9.1-1.13c6.96,0,12.03,1.6,15.3,4.79
		c3.21,3.19,4.84,8.01,4.84,14.5v19.1H61.71z M38.01,55.47c1.91,0,3.9-0.36,6-1.07c2.11-0.7,3.97-2,5.56-3.77
		c0.93-1.11,1.63-2.36,1.99-3.77c0.34-1.41,0.59-3.13,0.59-5.13v-2.47c-1.7-0.41-3.51-0.77-5.37-1.01c-1.87-0.23-3.69-0.34-5.5-0.34
		c-3.91,0-6.77,0.76-8.7,2.36c-1.93,1.59-2.86,3.83-2.86,6.77c0,2.77,0.7,4.84,2.16,6.26C33.28,54.75,35.32,55.47,38.01,55.47z
		 M84.87,61.84c-1.04,0-1.74-0.19-2.21-0.6c-0.47-0.34-0.87-1.17-1.23-2.3L67.72,13.37c-0.36-1.19-0.53-1.94-0.53-2.36
		c0-0.94,0.47-1.47,1.4-1.47h5.73c1.1,0,1.86,0.17,2.27,0.59c0.47,0.36,0.81,1.17,1.17,2.3l9.8,39.02l9.11-39.02
		c0.29-1.19,0.64-1.94,1.1-2.3c0.47-0.36,1.29-0.59,2.34-0.59h4.67c1.1,0,1.87,0.17,2.33,0.59c0.47,0.36,0.89,1.17,1.11,2.3
		l9.23,39.49l10.1-39.49c0.34-1.19,0.76-1.94,1.16-2.3c0.47-0.36,1.23-0.59,2.29-0.59h5.43c0.93,0,1.46,0.47,1.46,1.47
		c0,0.29-0.06,0.59-0.11,0.94c-0.06,0.36-0.17,0.83-0.41,1.47l-14.07,45.57c-0.34,1.19-0.76,1.96-1.21,2.3
		c-0.47,0.36-1.23,0.6-2.23,0.6h-5.01c-1.11,0-1.87-0.19-2.34-0.6c-0.47-0.4-0.87-1.17-1.1-2.36l-9.06-38.02l-8.98,37.97
		c-0.29,1.19-0.64,1.94-1.1,2.36c-0.47,0.41-1.29,0.6-2.34,0.6H84.87z M159.89,63.42c-3.03,0-6.07-0.36-8.98-1.06
		c-2.93-0.71-5.2-1.47-6.71-2.36c-0.94-0.54-1.59-1.13-1.81-1.66s-0.36-1.11-0.36-1.64v-3.01c0-1.24,0.47-1.83,1.34-1.83
		c0.36,0,0.71,0.06,1.06,0.19c0.34,0.11,0.87,0.34,1.46,0.59c1.99,0.89,4.14,1.59,6.43,2.06c2.33,0.47,4.6,0.71,6.94,0.71
		c3.69,0,6.54-0.66,8.53-1.96c1.99-1.3,3.03-3.19,3.03-5.6c0-1.64-0.53-3-1.57-4.13c-1.06-1.11-3.04-2.11-5.9-3.06l-8.46-2.66
		c-4.27-1.36-7.41-3.37-9.34-6.01c-1.93-2.6-2.93-5.48-2.93-8.56c0-2.47,0.53-4.66,1.59-6.54c1.04-1.89,2.46-3.54,4.2-4.84
		c1.76-1.36,3.74-2.36,6.07-3.06c2.33-0.7,4.79-1,7.36-1c1.29,0,2.63,0.06,3.91,0.23c1.34,0.19,2.57,0.41,3.8,0.66
		c1.16,0.29,2.27,0.59,3.33,0.94c1.04,0.36,1.86,0.7,2.44,1.06c0.83,0.47,1.4,0.94,1.76,1.47c0.36,0.47,0.53,1.11,0.53,1.94v2.77
		c0,1.24-0.47,1.89-1.34,1.89c-0.47,0-1.23-0.23-2.23-0.7c-3.31-1.53-7.06-2.3-11.2-2.3c-3.33,0-5.96,0.53-7.77,1.66
		c-1.8,1.11-2.74,2.83-2.74,5.24c0,1.64,0.59,3.06,1.76,4.19c1.17,1.11,3.33,2.24,6.41,3.24l8.3,2.66c4.2,1.36,7.24,3.24,9.04,5.66
		c1.81,2.41,2.69,5.19,2.69,8.26c0,2.53-0.53,4.83-1.51,6.84c-1.06,2-2.46,3.77-4.26,5.19c-1.81,1.47-3.97,2.53-6.48,3.3
		C165.61,63.01,162.86,63.42,159.89,63.42z"/>
	<path class="st1" d="M170.92,92.07C151.72,106.4,123.81,114,99.82,114c-33.61,0-63.92-12.56-86.8-33.42
		c-1.8-1.64-0.17-3.89,1.99-2.59c24.75,14.5,55.28,23.28,86.87,23.28c21.3,0,44.71-4.49,66.25-13.68
		C171.33,86.12,174.08,89.72,170.92,92.07z M178.92,82.88c-2.46-3.19-16.23-1.53-22.47-0.77c-1.87,0.24-2.16-1.41-0.47-2.66
		c10.97-7.77,29.01-5.54,31.11-2.94c2.11,2.66-0.59,20.87-10.86,29.6c-1.57,1.36-3.09,0.66-2.39-1.11
		C176.18,99.14,181.38,86,178.92,82.88z"/>
</g>
</svg>
