<svg xmlns="http://www.w3.org/2000/svg" viewBox="0 0 200 122"><style>.st0{display:none}.st1{display:inline}.st4{fill:#61dafb}.st6{fill:#b388ff}.st9{fill:#1c0802}.st11{fill:#020f16}</style><g id="Layer_1" class="st0"><g id="surface482321" class="st1"><path d="M61.71 46.49c0 2.19.23 3.96.64 5.26.47 1.3 1.04 2.71 1.87 4.24.29.47.4.94.4 1.36 0 .59-.34 1.17-1.1 1.77l-3.69 2.47c-.53.36-1.04.53-1.51.53-.59 0-1.17-.29-1.76-.83-.81-.87-1.51-1.83-2.1-2.77-.59-1-1.16-2.11-1.8-3.47-4.56 5.43-10.28 8.14-17.17 8.14-4.9 0-8.81-1.43-11.68-4.26-2.86-2.83-4.31-6.6-4.31-11.31 0-5.01 1.76-9.08 5.31-12.14 3.56-3.07 8.28-4.6 14.3-4.6 1.99 0 4.03.17 6.18.47 2.17.29 4.39.76 6.73 1.29v-4.3c0-4.47-.94-7.6-2.74-9.43-1.87-1.83-5.03-2.71-9.53-2.71-2.04 0-4.14.23-6.3.76-2.16.54-4.26 1.19-6.3 2.01-.94.41-1.64.64-2.04.77-.41.11-.71.17-.94.17-.81 0-1.21-.59-1.21-1.83V15.2c0-.94.11-1.66.4-2.07.3-.41.83-.83 1.64-1.24 2.04-1.06 4.49-1.94 7.36-2.64 2.86-.77 5.88-1.13 9.1-1.13 6.96 0 12.03 1.6 15.3 4.79 3.21 3.19 4.84 8.01 4.84 14.5v19.1h.11zm-23.7 8.98c1.91 0 3.9-.36 6-1.07 2.11-.7 3.97-2 5.56-3.77.93-1.11 1.63-2.36 1.99-3.77.34-1.41.59-3.13.59-5.13v-2.47c-1.7-.41-3.51-.77-5.37-1.01-1.87-.23-3.69-.34-5.5-.34-3.91 0-6.77.76-8.7 2.36-1.93 1.59-2.86 3.83-2.86 6.77 0 2.77.7 4.84 2.16 6.26 1.4 1.45 3.44 2.17 6.13 2.17zm46.86 6.37c-1.04 0-1.74-.19-2.21-.6-.47-.34-.87-1.17-1.23-2.3L67.72 13.37c-.36-1.19-.53-1.94-.53-2.36 0-.94.47-1.47 1.4-1.47h5.73c1.1 0 1.86.17 2.27.59.47.36.81 1.17 1.17 2.3l9.8 39.02 9.11-39.02c.29-1.19.64-1.94 1.1-2.3.47-.36 1.29-.59 2.34-.59h4.67c1.1 0 1.87.17 2.33.59.47.36.89 1.17 1.11 2.3l9.23 39.49 10.1-39.49c.34-1.19.76-1.94 1.16-2.3.47-.36 1.23-.59 2.29-.59h5.43c.93 0 1.46.47 1.46 1.47 0 .29-.06.59-.11.94-.06.36-.17.83-.41 1.47L123.3 58.99c-.34 1.19-.76 1.96-1.21 2.3-.47.36-1.23.6-2.23.6h-5.01c-1.11 0-1.87-.19-2.34-.6-.47-.4-.87-1.17-1.1-2.36l-9.06-38.02-8.98 37.97c-.29 1.19-.64 1.94-1.1 2.36-.47.41-1.29.6-2.34.6h-5.06zm75.02 1.58c-3.03 0-6.07-.36-8.98-1.06-2.93-.71-5.2-1.47-6.71-2.36-.94-.54-1.59-1.13-1.81-1.66s-.36-1.11-.36-1.64v-3.01c0-1.24.47-1.83 1.34-1.83.36 0 .71.06 1.06.19.34.11.87.34 1.46.59a31 31 0 0 0 6.43 2.06c2.33.47 4.6.71 6.94.71 3.69 0 6.54-.66 8.53-1.96 1.99-1.3 3.03-3.19 3.03-5.6 0-1.64-.53-3-1.57-4.13-1.06-1.11-3.04-2.11-5.9-3.06L154.89 38c-4.27-1.36-7.41-3.37-9.34-6.01-1.93-2.6-2.93-5.48-2.93-8.56 0-2.47.53-4.66 1.59-6.54 1.04-1.89 2.46-3.54 4.2-4.84 1.76-1.36 3.74-2.36 6.07-3.06 2.33-.7 4.79-1 7.36-1 1.29 0 2.63.06 3.91.23 1.34.19 2.57.41 3.8.66 1.16.29 2.27.59 3.33.94 1.04.36 1.86.7 2.44 1.06.83.47 1.4.94 1.76 1.47.36.47.53 1.11.53 1.94v2.77c0 1.24-.47 1.89-1.34 1.89-.47 0-1.23-.23-2.23-.7-3.31-1.53-7.06-2.3-11.2-2.3-3.33 0-5.96.53-7.77 1.66-1.8 1.11-2.74 2.83-2.74 5.24 0 1.64.59 3.06 1.76 4.19 1.17 1.11 3.33 2.24 6.41 3.24l8.3 2.66c4.2 1.36 7.24 3.24 9.04 5.66 1.81 2.41 2.69 5.19 2.69 8.26 0 2.53-.53 4.83-1.51 6.84-1.06 2-2.46 3.77-4.26 5.19-1.81 1.47-3.97 2.53-6.48 3.3-2.67.82-5.42 1.23-8.39 1.23z" fill="#252f3e"/><path d="M170.92 92.07C151.72 106.4 123.81 114 99.82 114c-33.61 0-63.92-12.56-86.8-33.42-1.8-1.64-.17-3.89 1.99-2.59 24.75 14.5 55.28 23.28 86.87 23.28 21.3 0 44.71-4.49 66.25-13.68 3.2-1.47 5.95 2.13 2.79 4.48zm8-9.19c-2.46-3.19-16.23-1.53-22.47-.77-1.87.24-2.16-1.41-.47-2.66 10.97-7.77 29.01-5.54 31.11-2.94 2.11 2.66-.59 20.87-10.86 29.6-1.57 1.36-3.09.66-2.39-1.11 2.34-5.86 7.54-19 5.08-22.12z" fill="#f90"/></g></g><g id="Layer_2" class="st0"><g class="st1"><path class="st4" d="M160.64 61.01c0-8.03-10.06-15.65-25.49-20.37 3.56-15.72 1.98-28.23-4.99-32.23-1.61-.94-3.49-1.38-5.54-1.38v5.51c1.14 0 2.05.22 2.82.64 3.36 1.93 4.82 9.27 3.68 18.71-.27 2.32-.72 4.77-1.26 7.27-4.85-1.19-10.14-2.1-15.7-2.69-3.34-4.57-6.8-8.73-10.28-12.36 8.06-7.49 15.62-11.59 20.76-11.59V7c-6.8 0-15.7 4.85-24.69 13.25-9-8.36-17.9-13.15-24.69-13.15v5.51c5.12 0 12.71 4.08 20.76 11.52-3.46 3.63-6.92 7.76-10.21 12.34-5.59.59-10.88 1.51-15.72 2.72-.57-2.47-.99-4.87-1.29-7.17-1.16-9.44.27-16.78 3.61-18.74.74-.44 1.71-.64 2.84-.64V7.12c-2.08 0-3.96.44-5.59 1.38-6.95 4-8.5 16.49-4.92 32.16C49.37 45.41 39.36 53 39.36 61.01c0 8.03 10.06 15.65 25.49 20.37-3.56 15.72-1.98 28.23 4.99 32.23 1.61.94 3.49 1.38 5.56 1.38 6.8 0 15.7-4.85 24.69-13.25 9 8.36 17.9 13.15 24.69 13.15 2.08 0 3.96-.44 5.59-1.38 6.95-4 8.5-16.49 4.92-32.16 15.34-4.71 25.35-12.33 25.35-20.34zm-32.19-16.49c-.91 3.19-2.05 6.48-3.34 9.76-1.01-1.98-2.08-3.96-3.24-5.93-1.14-1.98-2.35-3.91-3.56-5.78 3.52.52 6.9 1.16 10.14 1.95zm-11.32 26.33c-1.93 3.34-3.91 6.5-5.96 9.44-3.68.32-7.42.49-11.17.49-3.73 0-7.47-.17-11.12-.47-2.05-2.94-4.05-6.08-5.98-9.39-1.88-3.24-3.58-6.53-5.14-9.84 1.53-3.31 3.26-6.62 5.12-9.86 1.93-3.34 3.91-6.5 5.96-9.44 3.68-.32 7.42-.49 11.17-.49 3.73 0 7.47.17 11.12.47 2.05 2.94 4.05 6.08 5.98 9.39 1.88 3.24 3.58 6.53 5.14 9.84-1.56 3.31-3.27 6.62-5.12 9.86zm7.99-3.21c1.33 3.31 2.47 6.62 3.41 9.84-3.24.79-6.65 1.46-10.18 1.98 1.21-1.9 2.42-3.86 3.56-5.86 1.13-1.98 2.19-3.99 3.21-5.96zm-25.07 26.37c-2.3-2.37-4.6-5.02-6.87-7.91 2.22.1 4.5.17 6.8.17 2.32 0 4.62-.05 6.87-.17a98.207 98.207 0 0 1-6.8 7.91zM81.66 79.45c-3.51-.52-6.9-1.16-10.14-1.95.91-3.19 2.05-6.48 3.34-9.76 1.01 1.98 2.08 3.96 3.24 5.93 1.16 1.98 2.35 3.9 3.56 5.78zm18.27-51.44c2.3 2.37 4.6 5.02 6.87 7.91-2.22-.1-4.5-.17-6.8-.17-2.32 0-4.62.05-6.87.17 2.22-2.89 4.52-5.54 6.8-7.91zm-18.3 14.56c-1.21 1.9-2.42 3.86-3.56 5.86-1.14 1.98-2.2 3.96-3.21 5.93a106.67 106.67 0 0 1-3.41-9.84c3.24-.76 6.65-1.43 10.18-1.95zM59.26 73.52c-8.75-3.73-14.41-8.63-14.41-12.51s5.66-8.8 14.41-12.51c2.13-.91 4.45-1.73 6.85-2.5 1.41 4.85 3.26 9.89 5.56 15.05-2.27 5.14-4.1 10.16-5.49 14.98-2.44-.75-4.77-1.59-6.92-2.51zm13.3 35.32c-3.36-1.93-4.82-9.27-3.68-18.71.27-2.32.72-4.77 1.26-7.27 4.85 1.19 10.14 2.1 15.7 2.69 3.34 4.57 6.8 8.73 10.28 12.36-8.06 7.49-15.62 11.59-20.76 11.59-1.12-.01-2.06-.23-2.8-.66zm58.64-18.83c1.16 9.44-.27 16.78-3.61 18.74-.74.44-1.71.64-2.84.64-5.12 0-12.71-4.08-20.76-11.52 3.46-3.63 6.92-7.76 10.21-12.34 5.59-.59 10.88-1.51 15.72-2.72.56 2.5 1 4.9 1.28 7.2zm9.51-16.49c-2.13.91-4.45 1.73-6.85 2.5-1.41-4.85-3.26-9.89-5.56-15.05 2.27-5.14 4.1-10.16 5.49-14.98 2.45.77 4.77 1.61 6.95 2.52 8.75 3.73 14.41 8.63 14.41 12.51-.03 3.87-5.69 8.79-14.44 12.5z"/><circle class="st4" cx="99.98" cy="61.01" r="11.3"/></g></g><g id="Layer_3" class="st0"><g class="st1"><path d="M46 7h108v108H46V7z" fill="#f7df1e"/><path d="M74.4 97.25l8.26-5c1.59 2.83 3.04 5.22 6.52 5.22 3.33 0 5.44-1.3 5.44-6.38V56.58h10.15v34.65c0 10.51-6.16 15.3-15.15 15.3-8.12 0-12.83-4.2-15.22-9.28M110.29 96.17l8.26-4.78c2.18 3.55 5 6.16 10 6.16 4.21 0 6.89-2.1 6.89-5 0-3.48-2.75-4.71-7.39-6.74l-2.54-1.09c-7.32-3.12-12.18-7.03-12.18-15.3 0-7.61 5.8-13.41 14.86-13.41 6.45 0 11.09 2.25 14.43 8.12l-7.9 5.07c-1.74-3.12-3.62-4.35-6.52-4.35-2.97 0-4.86 1.88-4.86 4.35 0 3.04 1.89 4.28 6.23 6.16l2.54 1.09c8.63 3.7 13.48 7.47 13.48 15.95 0 9.14-7.18 14.14-16.82 14.14-9.42-.01-15.51-4.5-18.48-10.37"/></g></g><g id="Layer_4"><g id="surface431786_1_"><path class="st6" d="M108.32 38.16c0-3.61 2.92-6.53 6.53-6.53h45.68c3.61 0 6.53 2.92 6.53 6.53v45.68c0 3.61-2.92 6.53-6.53 6.53h-45.68c-3.61 0-6.53-2.92-6.53-6.53V38.16z"/><path d="M113.21 36.53v48.95h48.95V36.53h-48.95z" fill="#170b40"/><path class="st6" d="M133.09 67.47h-7.43l-1.41 4.65h-4.51l7.66-22.54h3.93l7.7 22.53h-4.51l-1.43-4.64zm-6.29-3.76h5.14l-2.58-8.44-2.56 8.44zm20.91 8.71c-1.19 0-2.25-.21-3.19-.64-.94-.42-1.73-1-2.38-1.73-.66-.73-1.15-1.59-1.5-2.57s-.52-2.04-.52-3.17v-.6c0-1.27.17-2.43.5-3.49.33-1.06.81-1.97 1.43-2.73.61-.76 1.36-1.36 2.24-1.79.88-.43 1.87-.64 2.96-.64 1.1 0 2.07.2 2.91.6.83.4 1.54.95 2.11 1.67.57.71 1 1.58 1.29 2.59.29 1.01.43 2.14.43 3.37v1.91h-9.73c.06.55.2 1.05.4 1.48.2.45.46.82.78 1.14.31.31.68.55 1.11.73.42.18.9.26 1.43.26.74 0 1.43-.15 2.06-.45.63-.31 1.17-.78 1.63-1.42l2.01 2.46c-.24.38-.55.76-.92 1.12-.37.36-.8.69-1.3.97-.5.29-1.06.51-1.69.68-.63.17-1.31.25-2.06.25zm-.47-13.74c-.44 0-.83.08-1.17.25-.33.17-.62.41-.86.71s-.43.66-.59 1.09c-.15.42-.25.89-.32 1.41h5.68v-.36c-.01-.45-.07-.85-.18-1.24-.11-.38-.27-.71-.5-.99-.22-.28-.5-.49-.85-.65-.33-.14-.73-.22-1.21-.22z"/></g><g id="surface483596_1_"><path d="M32.95 59.79c0-3.61 2.92-6.53 6.53-6.53h45.68c3.61 0 6.53 2.92 6.53 6.53v45.68c0 3.61-2.92 6.53-6.53 6.53H39.47c-3.61 0-6.53-2.92-6.53-6.53V59.79z" fill="#ff5722"/><path class="st9" d="M37.84 58.16v48.95h48.95V58.16H37.84zm23.97 35.89l-1.24-4.75h-6.39l-1.24 4.75h-4.96l7.25-23.2h4.29l7.3 23.2h-5.01zm11.68 0h-4.53V76.81h4.53v17.24zM73 74.07c-.44.46-1.04.69-1.79.69-.76 0-1.35-.23-1.79-.69-.45-.46-.66-1.03-.66-1.72 0-.7.22-1.27.67-1.72.45-.45 1.04-.67 1.78-.67s1.34.22 1.78.67c.45.45.67 1.02.67 1.72.01.69-.22 1.26-.66 1.72z"/><path class="st9" d="M55.2 85.4h4.33l-2.17-8.27-2.16 8.27z"/></g><g id="surface439101"><path d="M70.68 16.53c0-3.61 2.92-6.53 6.53-6.53h45.68c3.61 0 6.53 2.92 6.53 6.53v45.68c0 3.61-2.92 6.53-6.53 6.53H77.21c-3.61 0-6.53-2.92-6.53-6.53V16.53z" fill="#03a9f4"/><path class="st11" d="M93.55 31.5h-3.26v7.23h3.22c.89 0 1.58-.29 2.07-.88.49-.58.73-1.43.73-2.55 0-1.16-.25-2.08-.75-2.77-.5-.68-1.17-1.03-2.01-1.03z"/><path class="st11" d="M75.58 14.89v48.95h48.95V14.89H75.58zm23.43 25.77c-1.34 1.32-3.21 1.98-5.6 1.98h-3.12v8.16H85.6V27.6h7.9c2.29 0 4.12.71 5.49 2.14 1.36 1.42 2.05 3.27 2.05 5.54s-.68 4.06-2.03 5.38zm15.21 9.05c-1.16.94-2.68 1.4-4.56 1.4-1.27 0-2.38-.25-3.35-.74-.97-.5-1.73-1.19-2.28-2.06-.55-.88-.82-1.84-.82-2.86h4.29c.03.79.2 1.38.55 1.77s.91.59 1.7.59c1.21 0 1.82-.54 1.82-1.64 0-.38-.18-.74-.55-1.06-.37-.33-1.18-.76-2.44-1.31-1.86-.76-3.14-1.54-3.84-2.35-.69-.81-1.05-1.81-1.05-3.01 0-1.5.55-2.75 1.64-3.73 1.08-.98 2.53-1.47 4.32-1.47 1.89 0 3.4.49 4.54 1.47 1.13.98 1.7 2.29 1.7 3.93h-4.51c0-1.4-.59-2.1-1.75-2.1-.48 0-.87.15-1.18.45-.31.3-.47.71-.47 1.24 0 .38.17.72.51 1.01.34.29 1.14.71 2.41 1.25 1.84.68 3.14 1.44 3.89 2.28.76.83 1.14 1.91 1.14 3.24.02 1.52-.56 2.76-1.71 3.7z"/></g></g></svg>