<?xml version="1.0" encoding="utf-8"?>
<!-- Generator: Adobe Illustrator 23.0.3, SVG Export Plug-In . SVG Version: 6.00 Build 0)  -->
<svg version="1.1" id="Layer_1" xmlns="http://www.w3.org/2000/svg" xmlns:xlink="http://www.w3.org/1999/xlink" x="0px" y="0px"
	 viewBox="0 0 1920 1080" style="enable-background:new 0 0 1920 1080;" xml:space="preserve">
<style type="text/css">
	.st0{fill:#3FB04A;}
	.st1{fill:#3EB049;}
	.st2{fill:#4BB555;}
	.st3{fill:#9DD6A3;}
	.st4{fill:#90D197;}
	.st5{fill:#9ED6A4;}
	.st6{fill:#86CD8D;}
	.st7{fill:#3FB049;}
	.st8{fill:#EBF6EC;}
</style>
<g>
	<path class="st0" d="M380.38,462.77c4.7,8.17,9.32,16.39,14.1,24.51c17.72,30.14,35.47,60.26,53.26,90.36
		c1.01,1.71,1.49,3.02,0.23,4.91c-8.01,12.05-15.89,24.18-23.81,36.28c-45.1,0.01-90.19,0.03-135.29,0.04
		c-1.71,0-3.41,0.08-5.12,0.12c-6.77-11.18-13.52-22.37-20.31-33.54c-0.62-1.02-1.45-1.92-2.18-2.87c0-0.68,0-1.37,0-2.05
		c0.63-0.75,1.37-1.44,1.89-2.27c15.38-24.38,30.77-48.75,46.07-73.19c1.36-2.17,2.76-3.09,5.42-3.06
		c12.43,0.16,24.87,0.07,37.3,0.07c1.21,0,2.43,0,4.33,0c-7.24-13.52-14.16-26.42-21.07-39.32
		C350.25,462.77,365.31,462.77,380.38,462.77z M356.74,503.53c-14.53,25.53-28.87,50.73-43.46,76.37c29.18,0,57.7,0,86.88,0
		C385.57,554.24,371.24,529.04,356.74,503.53z"/>
	<path class="st0" d="M1224.56,619.56c0.1-0.9,0.28-1.79,0.28-2.69c0.11-36.05,0.2-72.1,0.29-108.14c0-1.58,0-3.15,0-5.06
		c0.94-0.07,1.92-0.2,2.89-0.2c11.87-0.01,23.73,0.06,35.6-0.07c2.4-0.03,3.53,0.86,4.71,2.89c10.21,17.51,20.56,34.93,30.89,52.37
		c0.63,1.06,1.43,2.02,2.61,3.67c0-19.87,0-39.04,0-58.53c14.06,0,27.76,0,41.81,0c0,6.89,0,13.59,0,20.28
		c0.01,31.83,0.03,63.66,0.05,95.49c-14.61,0-29.21,0-43.82,0c-10.77-17.91-21.54-35.83-32.33-53.73c-0.11-0.19-0.53-0.2-0.53-0.2
		c0,18,0,35.96,0,53.93C1252.86,619.56,1238.71,619.56,1224.56,619.56z"/>
	<path class="st1" d="M1015.74,619.56c0-38.97,0-77.95,0-117.65c4.98,0,9.72-0.05,14.45,0.01c13.32,0.17,26.68-0.17,39.96,0.72
		c14.72,0.99,28.84,4.73,40.39,14.72c14.77,12.78,20.36,29.37,18.54,48.4c-1.61,16.89-8.66,31.23-22.2,41.99
		c-8.64,6.86-18.84,9.31-29.5,10.49c-3.21,0.35-6.41,0.88-9.61,1.33C1050.43,619.56,1033.08,619.56,1015.74,619.56z M1059.01,538.81
		c0,15.13,0,29.86,0,44.85c9.49,0.55,17.8-1.41,23.42-9.37c5.4-7.66,5.79-15.99,1.1-24.13
		C1078.18,540.86,1069.35,538.45,1059.01,538.81z"/>
	<path class="st1" d="M507.68,618.87c-0.08-1.36-0.24-2.72-0.24-4.07c-0.04-36.73-0.07-73.47-0.09-110.2c0-0.67,0.1-1.34,0.21-2.68
		c4.67,0,9.3-0.05,13.93,0.01c13.33,0.16,26.69-0.13,39.99,0.69c13.78,0.85,27.07,4.17,38.34,12.82
		c15.52,11.92,22.1,28.07,21.11,47.28c-1,19.36-8.76,35.43-24.89,46.85c-7.97,5.64-17.21,7.54-26.68,8.65
		c-3.2,0.37-6.39,0.9-9.58,1.35c-8.67,0-17.34,0-26.02,0c-0.85-0.21-1.7-0.59-2.56-0.6C523.35,618.89,515.51,618.89,507.68,618.87z
		 M550.43,583.16c7.64,2.3,18.38-1.59,23.51-8.43c5.51-7.34,5.81-17.92,0.74-25.66c-4.91-7.5-15.6-11.85-24.25-9.75
		C550.43,553.91,550.43,568.55,550.43,583.16z"/>
	<path class="st0" d="M1135.55,619.56c0.1-1.11,0.28-2.21,0.28-3.32c0.01-36.72,0.01-73.44,0.01-110.16c0-1.12,0-2.23,0-3.53
		c26.52,0,52.68,0,79.04,0c0,10.34,0,20.55,0,31.18c-12.11,0-24.23,0-36.56,0c0,3.88,0,7.35,0,11.16c10.71,0,21.37,0,32.28,0
		c0,10.29,0,20.26,0,30.59c-10.45,0-20.99,0-31.78,0c0,4.03,0,7.71,0,11.72c11.98,0,23.9,0,36.12,0c0,10.76,0,21.21,0,31.65
		c-24.73,0.01-49.46,0.01-74.2,0.05c-1.28,0-2.55,0.43-3.83,0.65C1136.47,619.56,1136.01,619.56,1135.55,619.56z"/>
	<path class="st0" d="M803.49,619.56c0-26.33,0-52.67,0-79.39c-7.37,0-14.6,0-22.06,0c0-12.76,0-25.12,0-37.64
		c29.54,0,58.94,0,88.6,0c0,12.41,0,24.76,0,37.45c-7.48,0-14.83,0-22.72,0c0,26.75,0,53.17,0,79.59
		C832.71,619.56,818.1,619.56,803.49,619.56z"/>
	<path class="st0" d="M1553.88,619.56c-0.13-1.12-0.37-2.24-0.37-3.37c-0.02-36.97-0.02-73.93-0.01-110.9c0-0.9,0.09-1.79,0.16-2.94
		c13.97,0,27.81,0,42.06,0c0,26.2,0,52.36,0,78.79c11.98,0,23.57,0,35.54,0c0,12.98,0,25.7,0,38.42
		C1605.46,619.56,1579.67,619.56,1553.88,619.56z"/>
	<path class="st0" d="M716.63,618.81c-0.03-35.58-0.06-71.16-0.09-106.74c0-3.18,0-6.37,0-9.77c14.05,0,27.89,0,42.03,0
		c0,26.25,0,52.32,0,78.77c11.96,0,23.64,0,35.73,0c0,2.62-0.02,4.87,0,7.12c0.09,10.46,0.19,20.92,0.29,31.37
		c-0.46,0-0.91,0-1.37,0c-1.28-0.23-2.55-0.65-3.83-0.65C765.14,618.84,740.88,618.83,716.63,618.81z"/>
	<path class="st2" d="M1660.68,515.49c-0.54,0.96-1.11,1.9-1.62,2.87c-3.51,6.67-11.07,9.94-18.57,8.01
		c-6.76-1.74-11.81-8.39-11.73-15.43c0.09-7.51,5.24-13.86,12.52-15.45c7.4-1.61,14.7,1.86,17.98,8.54c0.43,0.87,0.94,1.7,1.42,2.55
		C1660.68,509.56,1660.68,512.52,1660.68,515.49z M1658.03,511.14c0.03-7.27-5.88-13.32-13.1-13.42
		c-7.05-0.1-13.36,6.04-13.53,13.15c-0.16,6.93,6.18,13.33,13.27,13.39C1651.93,524.33,1658,518.37,1658.03,511.14z"/>
	<path class="st3" d="M283.84,619.56c-0.07-0.18-0.1-0.37-0.1-0.56c1.71-0.04,3.41-0.12,5.12-0.12c45.1-0.02,90.19-0.03,135.29-0.04
		c0.01,0.24,0.03,0.48,0.04,0.72C377.41,619.56,330.62,619.56,283.84,619.56z"/>
	<path class="st4" d="M627.54,619.56c0.04-0.25,0.07-0.5,0.11-0.75c26.36-0.02,52.73-0.04,79.09-0.05c0.08,0.27,0.15,0.54,0.23,0.81
		C680.48,619.56,654.01,619.56,627.54,619.56z"/>
	<path class="st3" d="M1136.92,619.56c1.28-0.23,2.55-0.65,3.83-0.65c24.73-0.05,49.46-0.05,74.2-0.05
		c0.01,0.24,0.02,0.47,0.02,0.71C1188.96,619.56,1162.94,619.56,1136.92,619.56z"/>
	<path class="st3" d="M716.63,618.81c24.26,0.02,48.51,0.04,72.77,0.1c1.28,0,2.55,0.43,3.83,0.65c-25.56,0-51.12,0-76.68,0
		C716.57,619.31,716.6,619.06,716.63,618.81z"/>
	<path class="st3" d="M1374.5,619.56c0.03-0.25,0.06-0.5,0.09-0.75c14.57,0.02,29.14,0.03,43.71,0.05c0.01,0.24,0.02,0.47,0.02,0.71
		C1403.71,619.56,1389.1,619.56,1374.5,619.56z"/>
	<path class="st5" d="M1464.73,618.77c0.05,0.26,0.09,0.53,0.14,0.79c-13.69,0-27.39,0-41.08,0c0.05-0.26,0.1-0.53,0.15-0.79
		C1437.54,618.77,1451.14,618.77,1464.73,618.77z"/>
	<path class="st3" d="M892.59,619c0.04,0.2,0.01,0.38-0.09,0.56c-13.46,0-26.93,0-40.39,0c0.03-0.25,0.06-0.5,0.09-0.76
		C865.66,618.87,879.12,618.93,892.59,619z"/>
	<path class="st3" d="M935.63,619.56c-0.04-0.21-0.05-0.43-0.03-0.65c13.47-0.02,26.94-0.03,40.41-0.05c0,0.23,0.01,0.47,0.01,0.7
		C962.56,619.56,949.1,619.56,935.63,619.56z"/>
	<path class="st3" d="M1507.32,619.56c0-0.23,0.01-0.46,0.01-0.7c13.44-0.01,26.89-0.02,40.33-0.04c0.02,0.24,0.04,0.49,0.05,0.73
		C1534.25,619.56,1520.79,619.56,1507.32,619.56z"/>
	<path class="st6" d="M507.68,618.87c7.83,0.02,15.67,0.02,23.5,0.08c0.85,0.01,1.7,0.39,2.56,0.6c-8.9,0-17.8,0-26.7,0
		C507.25,619.33,507.46,619.1,507.68,618.87z"/>
	<path class="st7" d="M706.73,618.75c-26.36,0.02-52.73,0.04-79.09,0.05c-0.04-15.51-0.09-31.02-0.1-46.53c-0.02-21.9,0-43.8,0-65.7
		c0-1.24,0-2.48,0-3.96c26.45,0,52.7,0,79.14,0c0,10.35,0,20.56,0,31.09c-12.12,0-24.16,0-36.44,0c0,3.87,0,7.44,0,11.27
		c10.65,0,21.22,0,32.05,0c0,10.23,0,20.21,0,30.54c-10.65,0-21.2,0-31.96,0c0,3.96,0,7.56,0,11.55c11.95,0,23.97,0,36.41,0
		C706.73,597.89,706.73,608.32,706.73,618.75z"/>
	<path class="st0" d="M1547.66,618.83c-13.44,0.01-26.89,0.02-40.33,0.04c-5.71-18.45-11.43-36.89-17.15-55.34
		c-1.33-4.3-2.68-8.59-4.27-13.67c-7.24,23.56-14.22,46.24-21.19,68.91c-13.6,0-27.2,0-40.79,0
		c12.57-34.88,25.14-69.76,37.72-104.63c1.19-3.31,2.27-6.68,3.69-9.89c0.42-0.95,1.85-2.05,2.83-2.06
		c11.86-0.14,23.71-0.03,35.57-0.14c2.21-0.02,2.56,1.26,3.12,2.81c12,33.27,24.05,66.52,36.04,99.8
		C1544.6,609.33,1546.08,614.1,1547.66,618.83z"/>
	<path class="st0" d="M976.01,618.86c-13.47,0.02-26.94,0.03-40.41,0.05c-5.01-16.07-10.02-32.15-15.02-48.22
		c-2.09-6.71-4.15-13.44-6.44-20.88c-6.9,22.44-13.56,44.09-20.23,65.73c-0.36,1.18-0.87,2.31-1.32,3.46
		c-13.47-0.07-26.93-0.13-40.4-0.2c6.67-18.63,13.32-37.26,20.03-55.87c6.94-19.26,13.97-38.49,20.85-57.78
		c0.81-2.28,1.83-3.15,4.32-3.12c11.17,0.14,22.35,0.12,33.52,0.02c2.24-0.02,3.38,0.53,4.2,2.82
		c13.49,37.58,27.1,75.11,40.67,112.66C975.94,617.95,975.94,618.42,976.01,618.86z"/>
	<path class="st1" d="M1418.29,618.85c-14.57-0.02-29.14-0.03-43.71-0.05c-0.03-24.76-0.06-49.51-0.09-74.27c0-1.35,0-2.7,0-4.45
		c-7.43,0-14.66,0-22.09,0c0-12.68,0-24.96,0-37.48c29.45,0,58.92,0,88.6,0c0,12.38,0,24.64,0,37.29c-7.42,0-14.78,0-22.58,0
		c0,1.58,0,2.79,0,4.01c0,23.73,0,47.46-0.01,71.19C1418.42,616.35,1418.34,617.6,1418.29,618.85z"/>
	<path class="st2" d="M1638.88,520.14c0-6.56,0-12.11,0-17.82c3.15,0,6.18-0.09,9.2,0.03c2.54,0.1,4.36,1.22,4.51,4.09
		c0.15,2.81-1.02,4.58-3.9,5.05c-0.29,0.05-0.56,0.23-1.06,0.45c1.56,2.48,3.05,4.86,4.55,7.23c-0.22,0.29-0.44,0.59-0.66,0.88
		c-1.16-0.79-2.52-1.4-3.44-2.41c-1.13-1.24-1.77-2.93-2.88-4.2c-0.75-0.86-1.96-1.33-2.91-1.95
		C1640.2,514.24,1643.26,518.17,1638.88,520.14z M1641.6,509.19c2.42-0.15,4.57-0.15,6.65-0.5c0.65-0.11,1.56-1.2,1.55-1.83
		c-0.01-0.6-0.98-1.59-1.66-1.72c-2.08-0.38-4.21-0.42-6.55-0.62C1641.6,506.16,1641.6,507.36,1641.6,509.19z"/>
	<path class="st8" d="M1641.6,509.19c0-1.83,0-3.03,0-4.67c2.33,0.19,4.47,0.24,6.55,0.62c0.68,0.12,1.65,1.11,1.66,1.72
		c0.01,0.63-0.91,1.72-1.55,1.83C1646.16,509.04,1644.02,509.03,1641.6,509.19z"/>
</g>
</svg>
