<svg xmlns="http://www.w3.org/2000/svg" viewBox="0 0 200 122"><style>.st4{fill:#61dafb}</style><g id="Layer_2"><path class="st4" d="M160.64 61.01c0-8.03-10.06-15.65-25.49-20.37 3.56-15.72 1.98-28.23-4.99-32.23-1.61-.94-3.49-1.38-5.54-1.38v5.51c1.14 0 2.05.22 2.82.64 3.36 1.93 4.82 9.27 3.68 18.71-.27 2.32-.72 4.77-1.26 7.27-4.85-1.19-10.14-2.1-15.7-2.69-3.34-4.57-6.8-8.73-10.28-12.36 8.06-7.49 15.62-11.59 20.76-11.59V7c-6.8 0-15.7 4.85-24.69 13.25-9-8.36-17.9-13.15-24.69-13.15v5.51c5.12 0 12.71 4.08 20.76 11.52-3.46 3.63-6.92 7.76-10.21 12.34-5.59.59-10.88 1.51-15.72 2.72-.57-2.47-.99-4.87-1.29-7.17-1.16-9.44.27-16.78 3.61-18.74.74-.44 1.71-.64 2.84-.64V7.12c-2.08 0-3.96.44-5.59 1.38-6.95 4-8.5 16.49-4.92 32.16C49.37 45.41 39.36 53 39.36 61.01c0 8.03 10.06 15.65 25.49 20.37-3.56 15.72-1.98 28.23 4.99 32.23 1.61.94 3.49 1.38 5.56 1.38 6.8 0 15.7-4.85 24.69-13.25 9 8.36 17.9 13.15 24.69 13.15 2.08 0 3.96-.44 5.59-1.38 6.95-4 8.5-16.49 4.92-32.16 15.34-4.71 25.35-12.33 25.35-20.34zm-32.19-16.49c-.91 3.19-2.05 6.48-3.34 9.76-1.01-1.98-2.08-3.96-3.24-5.93-1.14-1.98-2.35-3.91-3.56-5.78 3.52.52 6.9 1.16 10.14 1.95zm-11.32 26.33c-1.93 3.34-3.91 6.5-5.96 9.44-3.68.32-7.42.49-11.17.49-3.73 0-7.47-.17-11.12-.47-2.05-2.94-4.05-6.08-5.98-9.39-1.88-3.24-3.58-6.53-5.14-9.84 1.53-3.31 3.26-6.62 5.12-9.86 1.93-3.34 3.91-6.5 5.96-9.44 3.68-.32 7.42-.49 11.17-.49 3.73 0 7.47.17 11.12.47 2.05 2.94 4.05 6.08 5.98 9.39 1.88 3.24 3.58 6.53 5.14 9.84-1.56 3.31-3.27 6.62-5.12 9.86zm7.99-3.21c1.33 3.31 2.47 6.62 3.41 9.84-3.24.79-6.65 1.46-10.18 1.98 1.21-1.9 2.42-3.86 3.56-5.86 1.13-1.98 2.19-3.99 3.21-5.96zm-25.07 26.37c-2.3-2.37-4.6-5.02-6.87-7.91 2.22.1 4.5.17 6.8.17 2.32 0 4.62-.05 6.87-.17a98.207 98.207 0 0 1-6.8 7.91zM81.66 79.45c-3.51-.52-6.9-1.16-10.14-1.95.91-3.19 2.05-6.48 3.34-9.76 1.01 1.98 2.08 3.96 3.24 5.93 1.16 1.98 2.35 3.9 3.56 5.78zm18.27-51.44c2.3 2.37 4.6 5.02 6.87 7.91-2.22-.1-4.5-.17-6.8-.17-2.32 0-4.62.05-6.87.17 2.22-2.89 4.52-5.54 6.8-7.91zm-18.3 14.56c-1.21 1.9-2.42 3.86-3.56 5.86-1.14 1.98-2.2 3.96-3.21 5.93a106.67 106.67 0 0 1-3.41-9.84c3.24-.76 6.65-1.43 10.18-1.95zM59.26 73.52c-8.75-3.73-14.41-8.63-14.41-12.51s5.66-8.8 14.41-12.51c2.13-.91 4.45-1.73 6.85-2.5 1.41 4.85 3.26 9.89 5.56 15.05-2.27 5.14-4.1 10.16-5.49 14.98-2.44-.75-4.77-1.59-6.92-2.51zm13.3 35.32c-3.36-1.93-4.82-9.27-3.68-18.71.27-2.32.72-4.77 1.26-7.27 4.85 1.19 10.14 2.1 15.7 2.69 3.34 4.57 6.8 8.73 10.28 12.36-8.06 7.49-15.62 11.59-20.76 11.59-1.12-.01-2.06-.23-2.8-.66zm58.64-18.83c1.16 9.44-.27 16.78-3.61 18.74-.74.44-1.71.64-2.84.64-5.12 0-12.71-4.08-20.76-11.52 3.46-3.63 6.92-7.76 10.21-12.34 5.59-.59 10.88-1.51 15.72-2.72.56 2.5 1 4.9 1.28 7.2zm9.51-16.49c-2.13.91-4.45 1.73-6.85 2.5-1.41-4.85-3.26-9.89-5.56-15.05 2.27-5.14 4.1-10.16 5.49-14.98 2.45.77 4.77 1.61 6.95 2.52 8.75 3.73 14.41 8.63 14.41 12.51-.03 3.87-5.69 8.79-14.44 12.5z"/><circle class="st4" cx="99.98" cy="61.01" r="11.3"/></g></svg>